<svg xmlns="http://www.w3.org/2000/svg" width="1920" height="937" style="cursor: move;"><g transform="translate(289.4218284586033,-362.98898814116785) scale(1.5157165665104004)"><rect class="rect" id="0_0" width="28" height="28" x="178" y="454.5" style="fill: rgb(160, 160, 160); stroke: black; stroke-width: 1; opacity: 0.96;"></rect><rect class="rect" id="1_0" width="26" height="26" x="254" y="409" style="fill: rgb(160, 160, 160); stroke: black; stroke-width: 1; opacity: 0.96;"></rect><rect class="rect" id="1_1" width="26" height="26" x="257" y="412" style="fill: rgb(224, 224, 224); stroke: black; stroke-width: 1; opacity: 0.96;"></rect><rect class="rect" id="1_2" width="26" height="26" x="260" y="415" style="fill: rgb(160, 160, 160); stroke: black; stroke-width: 1; opacity: 0.96;"></rect><rect class="rect" id="1_3" width="26" height="26" x="263" y="418" style="fill: rgb(224, 224, 224); stroke: black; stroke-width: 1; opacity: 0.96;"></rect><rect class="rect" id="1_4" width="26" height="26" x="266" y="421" style="fill: rgb(160, 160, 160); stroke: black; stroke-width: 1; opacity: 0.96;"></rect><rect class="rect" id="1_5" width="26" height="26" x="269" y="424" style="fill: rgb(224, 224, 224); stroke: black; stroke-width: 1; opacity: 0.96;"></rect><rect class="rect" id="1_6" width="26" height="26" x="272" y="427" style="fill: rgb(160, 160, 160); stroke: black; stroke-width: 1; opacity: 0.96;"></rect><rect class="rect" id="1_7" width="26" height="26" x="275" y="430" style="fill: rgb(224, 224, 224); stroke: black; stroke-width: 1; opacity: 0.96;"></rect><rect class="rect" id="1_8" width="26" height="26" x="278" y="433" style="fill: rgb(160, 160, 160); stroke: black; stroke-width: 1; opacity: 0.96;"></rect><rect class="rect" id="1_9" width="26" height="26" x="281" y="436" style="fill: rgb(224, 224, 224); stroke: black; stroke-width: 1; opacity: 0.96;"></rect><rect class="rect" id="1_10" width="26" height="26" x="284" y="439" style="fill: rgb(160, 160, 160); stroke: black; stroke-width: 1; opacity: 0.96;"></rect><rect class="rect" id="1_11" width="26" height="26" x="287" y="442" style="fill: rgb(224, 224, 224); stroke: black; stroke-width: 1; opacity: 0.96;"></rect><rect class="rect" id="1_12" width="26" height="26" x="290" y="445" style="fill: rgb(160, 160, 160); stroke: black; stroke-width: 1; opacity: 0.96;"></rect><rect class="rect" id="1_13" width="26" height="26" x="293" y="448" style="fill: rgb(224, 224, 224); stroke: black; stroke-width: 1; opacity: 0.96;"></rect><rect class="rect" id="1_14" width="26" height="26" x="296" y="451" style="fill: rgb(160, 160, 160); stroke: black; stroke-width: 1; opacity: 0.96;"></rect><rect class="rect" id="1_15" width="26" height="26" x="299" y="454" style="fill: rgb(224, 224, 224); stroke: black; stroke-width: 1; opacity: 0.96;"></rect><rect class="rect" id="1_16" width="26" height="26" x="302" y="457" style="fill: rgb(160, 160, 160); stroke: black; stroke-width: 1; opacity: 0.96;"></rect><rect class="rect" id="1_17" width="26" height="26" x="305" y="460" style="fill: rgb(224, 224, 224); stroke: black; stroke-width: 1; opacity: 0.96;"></rect><rect class="rect" id="1_18" width="26" height="26" x="308" y="463" style="fill: rgb(160, 160, 160); stroke: black; stroke-width: 1; opacity: 0.96;"></rect><rect class="rect" id="1_19" width="26" height="26" x="311" y="466" style="fill: rgb(224, 224, 224); stroke: black; stroke-width: 1; opacity: 0.96;"></rect><rect class="rect" id="1_20" width="26" height="26" x="314" y="469" style="fill: rgb(160, 160, 160); stroke: black; stroke-width: 1; opacity: 0.96;"></rect><rect class="rect" id="1_21" width="26" height="26" x="317" y="472" style="fill: rgb(224, 224, 224); stroke: black; stroke-width: 1; opacity: 0.96;"></rect><rect class="rect" id="1_22" width="26" height="26" x="320" y="475" style="fill: rgb(160, 160, 160); stroke: black; stroke-width: 1; opacity: 0.96;"></rect><rect class="rect" id="1_23" width="26" height="26" x="323" y="478" style="fill: rgb(224, 224, 224); stroke: black; stroke-width: 1; opacity: 0.96;"></rect><rect class="rect" id="1_24" width="26" height="26" x="326" y="481" style="fill: rgb(160, 160, 160); stroke: black; stroke-width: 1; opacity: 0.96;"></rect><rect class="rect" id="1_25" width="26" height="26" x="329" y="484" style="fill: rgb(224, 224, 224); stroke: black; stroke-width: 1; opacity: 0.96;"></rect><rect class="rect" id="1_26" width="26" height="26" x="332" y="487" style="fill: rgb(160, 160, 160); stroke: black; stroke-width: 1; opacity: 0.96;"></rect><rect class="rect" id="1_27" width="26" height="26" x="335" y="490" style="fill: rgb(224, 224, 224); stroke: black; stroke-width: 1; opacity: 0.96;"></rect><rect class="rect" id="1_28" width="26" height="26" x="338" y="493" style="fill: rgb(160, 160, 160); stroke: black; stroke-width: 1; opacity: 0.96;"></rect><rect class="rect" id="1_29" width="26" height="26" x="341" y="496" style="fill: rgb(224, 224, 224); stroke: black; stroke-width: 1; opacity: 0.96;"></rect><rect class="rect" id="1_30" width="26" height="26" x="344" y="499" style="fill: rgb(160, 160, 160); stroke: black; stroke-width: 1; opacity: 0.96;"></rect><rect class="rect" id="1_31" width="26" height="26" x="347" y="502" style="fill: rgb(224, 224, 224); stroke: black; stroke-width: 1; opacity: 0.96;"></rect><rect class="rect" id="2_0" width="24" height="24" x="343" y="362" style="fill: rgb(160, 160, 160); stroke: black; stroke-width: 1; opacity: 0.96;"></rect><rect class="rect" id="2_1" width="24" height="24" x="346" y="365" style="fill: rgb(224, 224, 224); stroke: black; stroke-width: 1; opacity: 0.96;"></rect><rect class="rect" id="2_2" width="24" height="24" x="349" y="368" style="fill: rgb(160, 160, 160); stroke: black; stroke-width: 1; opacity: 0.96;"></rect><rect class="rect" id="2_3" width="24" height="24" x="352" y="371" style="fill: rgb(224, 224, 224); stroke: black; stroke-width: 1; opacity: 0.96;"></rect><rect class="rect" id="2_4" width="24" height="24" x="355" y="374" style="fill: rgb(160, 160, 160); stroke: black; stroke-width: 1; opacity: 0.96;"></rect><rect class="rect" id="2_5" width="24" height="24" x="358" y="377" style="fill: rgb(224, 224, 224); stroke: black; stroke-width: 1; opacity: 0.96;"></rect><rect class="rect" id="2_6" width="24" height="24" x="361" y="380" style="fill: rgb(160, 160, 160); stroke: black; stroke-width: 1; opacity: 0.96;"></rect><rect class="rect" id="2_7" width="24" height="24" x="364" y="383" style="fill: rgb(224, 224, 224); stroke: black; stroke-width: 1; opacity: 0.96;"></rect><rect class="rect" id="2_8" width="24" height="24" x="367" y="386" style="fill: rgb(160, 160, 160); stroke: black; stroke-width: 1; opacity: 0.96;"></rect><rect class="rect" id="2_9" width="24" height="24" x="370" y="389" style="fill: rgb(224, 224, 224); stroke: black; stroke-width: 1; opacity: 0.96;"></rect><rect class="rect" id="2_10" width="24" height="24" x="373" y="392" style="fill: rgb(160, 160, 160); stroke: black; stroke-width: 1; opacity: 0.96;"></rect><rect class="rect" id="2_11" width="24" height="24" x="376" y="395" style="fill: rgb(224, 224, 224); stroke: black; stroke-width: 1; opacity: 0.96;"></rect><rect class="rect" id="2_12" width="24" height="24" x="379" y="398" style="fill: rgb(160, 160, 160); stroke: black; stroke-width: 1; opacity: 0.96;"></rect><rect class="rect" id="2_13" width="24" height="24" x="382" y="401" style="fill: rgb(224, 224, 224); stroke: black; stroke-width: 1; opacity: 0.96;"></rect><rect class="rect" id="2_14" width="24" height="24" x="385" y="404" style="fill: rgb(160, 160, 160); stroke: black; stroke-width: 1; opacity: 0.96;"></rect><rect class="rect" id="2_15" width="24" height="24" x="388" y="407" style="fill: rgb(224, 224, 224); stroke: black; stroke-width: 1; opacity: 0.96;"></rect><rect class="rect" id="2_16" width="24" height="24" x="391" y="410" style="fill: rgb(160, 160, 160); stroke: black; stroke-width: 1; opacity: 0.96;"></rect><rect class="rect" id="2_17" width="24" height="24" x="394" y="413" style="fill: rgb(224, 224, 224); stroke: black; stroke-width: 1; opacity: 0.96;"></rect><rect class="rect" id="2_18" width="24" height="24" x="397" y="416" style="fill: rgb(160, 160, 160); stroke: black; stroke-width: 1; opacity: 0.96;"></rect><rect class="rect" id="2_19" width="24" height="24" x="400" y="419" style="fill: rgb(224, 224, 224); stroke: black; stroke-width: 1; opacity: 0.96;"></rect><rect class="rect" id="2_20" width="24" height="24" x="403" y="422" style="fill: rgb(160, 160, 160); stroke: black; stroke-width: 1; opacity: 0.96;"></rect><rect class="rect" id="2_21" width="24" height="24" x="406" y="425" style="fill: rgb(224, 224, 224); stroke: black; stroke-width: 1; opacity: 0.96;"></rect><rect class="rect" id="2_22" width="24" height="24" x="409" y="428" style="fill: rgb(160, 160, 160); stroke: black; stroke-width: 1; opacity: 0.96;"></rect><rect class="rect" id="2_23" width="24" height="24" x="412" y="431" style="fill: rgb(224, 224, 224); stroke: black; stroke-width: 1; opacity: 0.96;"></rect><rect class="rect" id="2_24" width="24" height="24" x="415" y="434" style="fill: rgb(160, 160, 160); stroke: black; stroke-width: 1; opacity: 0.96;"></rect><rect class="rect" id="2_25" width="24" height="24" x="418" y="437" style="fill: rgb(224, 224, 224); stroke: black; stroke-width: 1; opacity: 0.96;"></rect><rect class="rect" id="2_26" width="24" height="24" x="421" y="440" style="fill: rgb(160, 160, 160); stroke: black; stroke-width: 1; opacity: 0.96;"></rect><rect class="rect" id="2_27" width="24" height="24" x="424" y="443" style="fill: rgb(224, 224, 224); stroke: black; stroke-width: 1; opacity: 0.96;"></rect><rect class="rect" id="2_28" width="24" height="24" x="427" y="446" style="fill: rgb(160, 160, 160); stroke: black; stroke-width: 1; opacity: 0.96;"></rect><rect class="rect" id="2_29" width="24" height="24" x="430" y="449" style="fill: rgb(224, 224, 224); stroke: black; stroke-width: 1; opacity: 0.96;"></rect><rect class="rect" id="2_30" width="24" height="24" x="433" y="452" style="fill: rgb(160, 160, 160); stroke: black; stroke-width: 1; opacity: 0.96;"></rect><rect class="rect" id="2_31" width="24" height="24" x="436" y="455" style="fill: rgb(224, 224, 224); stroke: black; stroke-width: 1; opacity: 0.96;"></rect><rect class="rect" id="2_32" width="24" height="24" x="439" y="458" style="fill: rgb(160, 160, 160); stroke: black; stroke-width: 1; opacity: 0.96;"></rect><rect class="rect" id="2_33" width="24" height="24" x="442" y="461" style="fill: rgb(224, 224, 224); stroke: black; stroke-width: 1; opacity: 0.96;"></rect><rect class="rect" id="2_34" width="24" height="24" x="445" y="464" style="fill: rgb(160, 160, 160); stroke: black; stroke-width: 1; opacity: 0.96;"></rect><rect class="rect" id="2_35" width="24" height="24" x="448" y="467" style="fill: rgb(224, 224, 224); stroke: black; stroke-width: 1; opacity: 0.96;"></rect><rect class="rect" id="2_36" width="24" height="24" x="451" y="470" style="fill: rgb(160, 160, 160); stroke: black; stroke-width: 1; opacity: 0.96;"></rect><rect class="rect" id="2_37" width="24" height="24" x="454" y="473" style="fill: rgb(224, 224, 224); stroke: black; stroke-width: 1; opacity: 0.96;"></rect><rect class="rect" id="2_38" width="24" height="24" x="457" y="476" style="fill: rgb(160, 160, 160); stroke: black; stroke-width: 1; opacity: 0.96;"></rect><rect class="rect" id="2_39" width="24" height="24" x="460" y="479" style="fill: rgb(224, 224, 224); stroke: black; stroke-width: 1; opacity: 0.96;"></rect><rect class="rect" id="2_40" width="24" height="24" x="463" y="482" style="fill: rgb(160, 160, 160); stroke: black; stroke-width: 1; opacity: 0.96;"></rect><rect class="rect" id="2_41" width="24" height="24" x="466" y="485" style="fill: rgb(224, 224, 224); stroke: black; stroke-width: 1; opacity: 0.96;"></rect><rect class="rect" id="2_42" width="24" height="24" x="469" y="488" style="fill: rgb(160, 160, 160); stroke: black; stroke-width: 1; opacity: 0.96;"></rect><rect class="rect" id="2_43" width="24" height="24" x="472" y="491" style="fill: rgb(224, 224, 224); stroke: black; stroke-width: 1; opacity: 0.96;"></rect><rect class="rect" id="2_44" width="24" height="24" x="475" y="494" style="fill: rgb(160, 160, 160); stroke: black; stroke-width: 1; opacity: 0.96;"></rect><rect class="rect" id="2_45" width="24" height="24" x="478" y="497" style="fill: rgb(224, 224, 224); stroke: black; stroke-width: 1; opacity: 0.96;"></rect><rect class="rect" id="2_46" width="24" height="24" x="481" y="500" style="fill: rgb(160, 160, 160); stroke: black; stroke-width: 1; opacity: 0.96;"></rect><rect class="rect" id="2_47" width="24" height="24" x="484" y="503" style="fill: rgb(224, 224, 224); stroke: black; stroke-width: 1; opacity: 0.96;"></rect><rect class="rect" id="2_48" width="24" height="24" x="487" y="506" style="fill: rgb(160, 160, 160); stroke: black; stroke-width: 1; opacity: 0.96;"></rect><rect class="rect" id="2_49" width="24" height="24" x="490" y="509" style="fill: rgb(224, 224, 224); stroke: black; stroke-width: 1; opacity: 0.96;"></rect><rect class="rect" id="2_50" width="24" height="24" x="493" y="512" style="fill: rgb(160, 160, 160); stroke: black; stroke-width: 1; opacity: 0.96;"></rect><rect class="rect" id="2_51" width="24" height="24" x="496" y="515" style="fill: rgb(224, 224, 224); stroke: black; stroke-width: 1; opacity: 0.96;"></rect><rect class="rect" id="2_52" width="24" height="24" x="499" y="518" style="fill: rgb(160, 160, 160); stroke: black; stroke-width: 1; opacity: 0.96;"></rect><rect class="rect" id="2_53" width="24" height="24" x="502" y="521" style="fill: rgb(224, 224, 224); stroke: black; stroke-width: 1; opacity: 0.96;"></rect><rect class="rect" id="2_54" width="24" height="24" x="505" y="524" style="fill: rgb(160, 160, 160); stroke: black; stroke-width: 1; opacity: 0.96;"></rect><rect class="rect" id="2_55" width="24" height="24" x="508" y="527" style="fill: rgb(224, 224, 224); stroke: black; stroke-width: 1; opacity: 0.96;"></rect><rect class="rect" id="2_56" width="24" height="24" x="511" y="530" style="fill: rgb(160, 160, 160); stroke: black; stroke-width: 1; opacity: 0.96;"></rect><rect class="rect" id="2_57" width="24" height="24" x="514" y="533" style="fill: rgb(224, 224, 224); stroke: black; stroke-width: 1; opacity: 0.96;"></rect><rect class="rect" id="2_58" width="24" height="24" x="517" y="536" style="fill: rgb(160, 160, 160); stroke: black; stroke-width: 1; opacity: 0.96;"></rect><rect class="rect" id="2_59" width="24" height="24" x="520" y="539" style="fill: rgb(224, 224, 224); stroke: black; stroke-width: 1; opacity: 0.96;"></rect><rect class="rect" id="2_60" width="24" height="24" x="523" y="542" style="fill: rgb(160, 160, 160); stroke: black; stroke-width: 1; opacity: 0.96;"></rect><rect class="rect" id="2_61" width="24" height="24" x="526" y="545" style="fill: rgb(224, 224, 224); stroke: black; stroke-width: 1; opacity: 0.96;"></rect><rect class="rect" id="2_62" width="24" height="24" x="529" y="548" style="fill: rgb(160, 160, 160); stroke: black; stroke-width: 1; opacity: 0.96;"></rect><rect class="rect" id="2_63" width="24" height="24" x="532" y="551" style="fill: rgb(224, 224, 224); stroke: black; stroke-width: 1; opacity: 0.96;"></rect><rect class="rect" id="3_0" width="10" height="10" x="456" y="273" style="fill: rgb(160, 160, 160); stroke: black; stroke-width: 1; opacity: 0.96;"></rect><rect class="rect" id="3_1" width="10" height="10" x="459" y="276" style="fill: rgb(224, 224, 224); stroke: black; stroke-width: 1; opacity: 0.96;"></rect><rect class="rect" id="3_2" width="10" height="10" x="462" y="279" style="fill: rgb(160, 160, 160); stroke: black; stroke-width: 1; opacity: 0.96;"></rect><rect class="rect" id="3_3" width="10" height="10" x="465" y="282" style="fill: rgb(224, 224, 224); stroke: black; stroke-width: 1; opacity: 0.96;"></rect><rect class="rect" id="3_4" width="10" height="10" x="468" y="285" style="fill: rgb(160, 160, 160); stroke: black; stroke-width: 1; opacity: 0.96;"></rect><rect class="rect" id="3_5" width="10" height="10" x="471" y="288" style="fill: rgb(224, 224, 224); stroke: black; stroke-width: 1; opacity: 0.96;"></rect><rect class="rect" id="3_6" width="10" height="10" x="474" y="291" style="fill: rgb(160, 160, 160); stroke: black; stroke-width: 1; opacity: 0.96;"></rect><rect class="rect" id="3_7" width="10" height="10" x="477" y="294" style="fill: rgb(224, 224, 224); stroke: black; stroke-width: 1; opacity: 0.96;"></rect><rect class="rect" id="3_8" width="10" height="10" x="480" y="297" style="fill: rgb(160, 160, 160); stroke: black; stroke-width: 1; opacity: 0.96;"></rect><rect class="rect" id="3_9" width="10" height="10" x="483" y="300" style="fill: rgb(224, 224, 224); stroke: black; stroke-width: 1; opacity: 0.96;"></rect><rect class="rect" id="3_10" width="10" height="10" x="486" y="303" style="fill: rgb(160, 160, 160); stroke: black; stroke-width: 1; opacity: 0.96;"></rect><rect class="rect" id="3_11" width="10" height="10" x="489" y="306" style="fill: rgb(224, 224, 224); stroke: black; stroke-width: 1; opacity: 0.96;"></rect><rect class="rect" id="3_12" width="10" height="10" x="492" y="309" style="fill: rgb(160, 160, 160); stroke: black; stroke-width: 1; opacity: 0.96;"></rect><rect class="rect" id="3_13" width="10" height="10" x="495" y="312" style="fill: rgb(224, 224, 224); stroke: black; stroke-width: 1; opacity: 0.96;"></rect><rect class="rect" id="3_14" width="10" height="10" x="498" y="315" style="fill: rgb(160, 160, 160); stroke: black; stroke-width: 1; opacity: 0.96;"></rect><rect class="rect" id="3_15" width="10" height="10" x="501" y="318" style="fill: rgb(224, 224, 224); stroke: black; stroke-width: 1; opacity: 0.96;"></rect><rect class="rect" id="3_16" width="10" height="10" x="504" y="321" style="fill: rgb(160, 160, 160); stroke: black; stroke-width: 1; opacity: 0.96;"></rect><rect class="rect" id="3_17" width="10" height="10" x="507" y="324" style="fill: rgb(224, 224, 224); stroke: black; stroke-width: 1; opacity: 0.96;"></rect><rect class="rect" id="3_18" width="10" height="10" x="510" y="327" style="fill: rgb(160, 160, 160); stroke: black; stroke-width: 1; opacity: 0.96;"></rect><rect class="rect" id="3_19" width="10" height="10" x="513" y="330" style="fill: rgb(224, 224, 224); stroke: black; stroke-width: 1; opacity: 0.96;"></rect><rect class="rect" id="3_20" width="10" height="10" x="516" y="333" style="fill: rgb(160, 160, 160); stroke: black; stroke-width: 1; opacity: 0.96;"></rect><rect class="rect" id="3_21" width="10" height="10" x="519" y="336" style="fill: rgb(224, 224, 224); stroke: black; stroke-width: 1; opacity: 0.96;"></rect><rect class="rect" id="3_22" width="10" height="10" x="522" y="339" style="fill: rgb(160, 160, 160); stroke: black; stroke-width: 1; opacity: 0.96;"></rect><rect class="rect" id="3_23" width="10" height="10" x="525" y="342" style="fill: rgb(224, 224, 224); stroke: black; stroke-width: 1; opacity: 0.96;"></rect><rect class="rect" id="3_24" width="10" height="10" x="528" y="345" style="fill: rgb(160, 160, 160); stroke: black; stroke-width: 1; opacity: 0.96;"></rect><rect class="rect" id="3_25" width="10" height="10" x="531" y="348" style="fill: rgb(224, 224, 224); stroke: black; stroke-width: 1; opacity: 0.96;"></rect><rect class="rect" id="3_26" width="10" height="10" x="534" y="351" style="fill: rgb(160, 160, 160); stroke: black; stroke-width: 1; opacity: 0.96;"></rect><rect class="rect" id="3_27" width="10" height="10" x="537" y="354" style="fill: rgb(224, 224, 224); stroke: black; stroke-width: 1; opacity: 0.96;"></rect><rect class="rect" id="3_28" width="10" height="10" x="540" y="357" style="fill: rgb(160, 160, 160); stroke: black; stroke-width: 1; opacity: 0.96;"></rect><rect class="rect" id="3_29" width="10" height="10" x="543" y="360" style="fill: rgb(224, 224, 224); stroke: black; stroke-width: 1; opacity: 0.96;"></rect><rect class="rect" id="3_30" width="10" height="10" x="546" y="363" style="fill: rgb(160, 160, 160); stroke: black; stroke-width: 1; opacity: 0.96;"></rect><rect class="rect" id="3_31" width="10" height="10" x="549" y="366" style="fill: rgb(224, 224, 224); stroke: black; stroke-width: 1; opacity: 0.96;"></rect><rect class="rect" id="3_32" width="10" height="10" x="552" y="369" style="fill: rgb(160, 160, 160); stroke: black; stroke-width: 1; opacity: 0.96;"></rect><rect class="rect" id="3_33" width="10" height="10" x="555" y="372" style="fill: rgb(224, 224, 224); stroke: black; stroke-width: 1; opacity: 0.96;"></rect><rect class="rect" id="3_34" width="10" height="10" x="558" y="375" style="fill: rgb(160, 160, 160); stroke: black; stroke-width: 1; opacity: 0.96;"></rect><rect class="rect" id="3_35" width="10" height="10" x="561" y="378" style="fill: rgb(224, 224, 224); stroke: black; stroke-width: 1; opacity: 0.96;"></rect><rect class="rect" id="3_36" width="10" height="10" x="564" y="381" style="fill: rgb(160, 160, 160); stroke: black; stroke-width: 1; opacity: 0.96;"></rect><rect class="rect" id="3_37" width="10" height="10" x="567" y="384" style="fill: rgb(224, 224, 224); stroke: black; stroke-width: 1; opacity: 0.96;"></rect><rect class="rect" id="3_38" width="10" height="10" x="570" y="387" style="fill: rgb(160, 160, 160); stroke: black; stroke-width: 1; opacity: 0.96;"></rect><rect class="rect" id="3_39" width="10" height="10" x="573" y="390" style="fill: rgb(224, 224, 224); stroke: black; stroke-width: 1; opacity: 0.96;"></rect><rect class="rect" id="3_40" width="10" height="10" x="576" y="393" style="fill: rgb(160, 160, 160); stroke: black; stroke-width: 1; opacity: 0.96;"></rect><rect class="rect" id="3_41" width="10" height="10" x="579" y="396" style="fill: rgb(224, 224, 224); stroke: black; stroke-width: 1; opacity: 0.96;"></rect><rect class="rect" id="3_42" width="10" height="10" x="582" y="399" style="fill: rgb(160, 160, 160); stroke: black; stroke-width: 1; opacity: 0.96;"></rect><rect class="rect" id="3_43" width="10" height="10" x="585" y="402" style="fill: rgb(224, 224, 224); stroke: black; stroke-width: 1; opacity: 0.96;"></rect><rect class="rect" id="3_44" width="10" height="10" x="588" y="405" style="fill: rgb(160, 160, 160); stroke: black; stroke-width: 1; opacity: 0.96;"></rect><rect class="rect" id="3_45" width="10" height="10" x="591" y="408" style="fill: rgb(224, 224, 224); stroke: black; stroke-width: 1; opacity: 0.96;"></rect><rect class="rect" id="3_46" width="10" height="10" x="594" y="411" style="fill: rgb(160, 160, 160); stroke: black; stroke-width: 1; opacity: 0.96;"></rect><rect class="rect" id="3_47" width="10" height="10" x="597" y="414" style="fill: rgb(224, 224, 224); stroke: black; stroke-width: 1; opacity: 0.96;"></rect><rect class="rect" id="3_48" width="10" height="10" x="600" y="417" style="fill: rgb(160, 160, 160); stroke: black; stroke-width: 1; opacity: 0.96;"></rect><rect class="rect" id="3_49" width="10" height="10" x="603" y="420" style="fill: rgb(224, 224, 224); stroke: black; stroke-width: 1; opacity: 0.96;"></rect><rect class="rect" id="3_50" width="10" height="10" x="606" y="423" style="fill: rgb(160, 160, 160); stroke: black; stroke-width: 1; opacity: 0.96;"></rect><rect class="rect" id="3_51" width="10" height="10" x="609" y="426" style="fill: rgb(224, 224, 224); stroke: black; stroke-width: 1; opacity: 0.96;"></rect><rect class="rect" id="3_52" width="10" height="10" x="612" y="429" style="fill: rgb(160, 160, 160); stroke: black; stroke-width: 1; opacity: 0.96;"></rect><rect class="rect" id="3_53" width="10" height="10" x="615" y="432" style="fill: rgb(224, 224, 224); stroke: black; stroke-width: 1; opacity: 0.96;"></rect><rect class="rect" id="3_54" width="10" height="10" x="618" y="435" style="fill: rgb(160, 160, 160); stroke: black; stroke-width: 1; opacity: 0.96;"></rect><rect class="rect" id="3_55" width="10" height="10" x="621" y="438" style="fill: rgb(224, 224, 224); stroke: black; stroke-width: 1; opacity: 0.96;"></rect><rect class="rect" id="3_56" width="10" height="10" x="624" y="441" style="fill: rgb(160, 160, 160); stroke: black; stroke-width: 1; opacity: 0.96;"></rect><rect class="rect" id="3_57" width="10" height="10" x="627" y="444" style="fill: rgb(224, 224, 224); stroke: black; stroke-width: 1; opacity: 0.96;"></rect><rect class="rect" id="3_58" width="10" height="10" x="630" y="447" style="fill: rgb(160, 160, 160); stroke: black; stroke-width: 1; opacity: 0.96;"></rect><rect class="rect" id="3_59" width="10" height="10" x="633" y="450" style="fill: rgb(224, 224, 224); stroke: black; stroke-width: 1; opacity: 0.96;"></rect><rect class="rect" id="3_60" width="10" height="10" x="636" y="453" style="fill: rgb(160, 160, 160); stroke: black; stroke-width: 1; opacity: 0.96;"></rect><rect class="rect" id="3_61" width="10" height="10" x="639" y="456" style="fill: rgb(224, 224, 224); stroke: black; stroke-width: 1; opacity: 0.96;"></rect><rect class="rect" id="3_62" width="10" height="10" x="642" y="459" style="fill: rgb(160, 160, 160); stroke: black; stroke-width: 1; opacity: 0.96;"></rect><rect class="rect" id="3_63" width="10" height="10" x="645" y="462" style="fill: rgb(224, 224, 224); stroke: black; stroke-width: 1; opacity: 0.96;"></rect><rect class="rect" id="3_64" width="10" height="10" x="648" y="465" style="fill: rgb(160, 160, 160); stroke: black; stroke-width: 1; opacity: 0.96;"></rect><rect class="rect" id="3_65" width="10" height="10" x="651" y="468" style="fill: rgb(224, 224, 224); stroke: black; stroke-width: 1; opacity: 0.96;"></rect><rect class="rect" id="3_66" width="10" height="10" x="654" y="471" style="fill: rgb(160, 160, 160); stroke: black; stroke-width: 1; opacity: 0.96;"></rect><rect class="rect" id="3_67" width="10" height="10" x="657" y="474" style="fill: rgb(224, 224, 224); stroke: black; stroke-width: 1; opacity: 0.96;"></rect><rect class="rect" id="3_68" width="10" height="10" x="660" y="477" style="fill: rgb(160, 160, 160); stroke: black; stroke-width: 1; opacity: 0.96;"></rect><rect class="rect" id="3_69" width="10" height="10" x="663" y="480" style="fill: rgb(224, 224, 224); stroke: black; stroke-width: 1; opacity: 0.96;"></rect><rect class="rect" id="3_70" width="10" height="10" x="666" y="483" style="fill: rgb(160, 160, 160); stroke: black; stroke-width: 1; opacity: 0.96;"></rect><rect class="rect" id="3_71" width="10" height="10" x="669" y="486" style="fill: rgb(224, 224, 224); stroke: black; stroke-width: 1; opacity: 0.96;"></rect><rect class="rect" id="3_72" width="10" height="10" x="672" y="489" style="fill: rgb(160, 160, 160); stroke: black; stroke-width: 1; opacity: 0.96;"></rect><rect class="rect" id="3_73" width="10" height="10" x="675" y="492" style="fill: rgb(224, 224, 224); stroke: black; stroke-width: 1; opacity: 0.96;"></rect><rect class="rect" id="3_74" width="10" height="10" x="678" y="495" style="fill: rgb(160, 160, 160); stroke: black; stroke-width: 1; opacity: 0.96;"></rect><rect class="rect" id="3_75" width="10" height="10" x="681" y="498" style="fill: rgb(224, 224, 224); stroke: black; stroke-width: 1; opacity: 0.96;"></rect><rect class="rect" id="3_76" width="10" height="10" x="684" y="501" style="fill: rgb(160, 160, 160); stroke: black; stroke-width: 1; opacity: 0.96;"></rect><rect class="rect" id="3_77" width="10" height="10" x="687" y="504" style="fill: rgb(224, 224, 224); stroke: black; stroke-width: 1; opacity: 0.96;"></rect><rect class="rect" id="3_78" width="10" height="10" x="690" y="507" style="fill: rgb(160, 160, 160); stroke: black; stroke-width: 1; opacity: 0.96;"></rect><rect class="rect" id="3_79" width="10" height="10" x="693" y="510" style="fill: rgb(224, 224, 224); stroke: black; stroke-width: 1; opacity: 0.96;"></rect><rect class="rect" id="3_80" width="10" height="10" x="696" y="513" style="fill: rgb(160, 160, 160); stroke: black; stroke-width: 1; opacity: 0.96;"></rect><rect class="rect" id="3_81" width="10" height="10" x="699" y="516" style="fill: rgb(224, 224, 224); stroke: black; stroke-width: 1; opacity: 0.96;"></rect><rect class="rect" id="3_82" width="10" height="10" x="702" y="519" style="fill: rgb(160, 160, 160); stroke: black; stroke-width: 1; opacity: 0.96;"></rect><rect class="rect" id="3_83" width="10" height="10" x="705" y="522" style="fill: rgb(224, 224, 224); stroke: black; stroke-width: 1; opacity: 0.96;"></rect><rect class="rect" id="3_84" width="10" height="10" x="708" y="525" style="fill: rgb(160, 160, 160); stroke: black; stroke-width: 1; opacity: 0.96;"></rect><rect class="rect" id="3_85" width="10" height="10" x="711" y="528" style="fill: rgb(224, 224, 224); stroke: black; stroke-width: 1; opacity: 0.96;"></rect><rect class="rect" id="3_86" width="10" height="10" x="714" y="531" style="fill: rgb(160, 160, 160); stroke: black; stroke-width: 1; opacity: 0.96;"></rect><rect class="rect" id="3_87" width="10" height="10" x="717" y="534" style="fill: rgb(224, 224, 224); stroke: black; stroke-width: 1; opacity: 0.96;"></rect><rect class="rect" id="3_88" width="10" height="10" x="720" y="537" style="fill: rgb(160, 160, 160); stroke: black; stroke-width: 1; opacity: 0.96;"></rect><rect class="rect" id="3_89" width="10" height="10" x="723" y="540" style="fill: rgb(224, 224, 224); stroke: black; stroke-width: 1; opacity: 0.96;"></rect><rect class="rect" id="3_90" width="10" height="10" x="726" y="543" style="fill: rgb(160, 160, 160); stroke: black; stroke-width: 1; opacity: 0.96;"></rect><rect class="rect" id="3_91" width="10" height="10" x="729" y="546" style="fill: rgb(224, 224, 224); stroke: black; stroke-width: 1; opacity: 0.96;"></rect><rect class="rect" id="3_92" width="10" height="10" x="732" y="549" style="fill: rgb(160, 160, 160); stroke: black; stroke-width: 1; opacity: 0.96;"></rect><rect class="rect" id="3_93" width="10" height="10" x="735" y="552" style="fill: rgb(224, 224, 224); stroke: black; stroke-width: 1; opacity: 0.96;"></rect><rect class="rect" id="3_94" width="10" height="10" x="738" y="555" style="fill: rgb(160, 160, 160); stroke: black; stroke-width: 1; opacity: 0.96;"></rect><rect class="rect" id="3_95" width="10" height="10" x="741" y="558" style="fill: rgb(224, 224, 224); stroke: black; stroke-width: 1; opacity: 0.96;"></rect><rect class="rect" id="3_96" width="10" height="10" x="744" y="561" style="fill: rgb(160, 160, 160); stroke: black; stroke-width: 1; opacity: 0.96;"></rect><rect class="rect" id="3_97" width="10" height="10" x="747" y="564" style="fill: rgb(224, 224, 224); stroke: black; stroke-width: 1; opacity: 0.96;"></rect><rect class="rect" id="3_98" width="10" height="10" x="750" y="567" style="fill: rgb(160, 160, 160); stroke: black; stroke-width: 1; opacity: 0.96;"></rect><rect class="rect" id="3_99" width="10" height="10" x="753" y="570" style="fill: rgb(224, 224, 224); stroke: black; stroke-width: 1; opacity: 0.96;"></rect><rect class="rect" id="3_100" width="10" height="10" x="756" y="573" style="fill: rgb(160, 160, 160); stroke: black; stroke-width: 1; opacity: 0.96;"></rect><rect class="rect" id="3_101" width="10" height="10" x="759" y="576" style="fill: rgb(224, 224, 224); stroke: black; stroke-width: 1; opacity: 0.96;"></rect><rect class="rect" id="3_102" width="10" height="10" x="762" y="579" style="fill: rgb(160, 160, 160); stroke: black; stroke-width: 1; opacity: 0.96;"></rect><rect class="rect" id="3_103" width="10" height="10" x="765" y="582" style="fill: rgb(224, 224, 224); stroke: black; stroke-width: 1; opacity: 0.96;"></rect><rect class="rect" id="3_104" width="10" height="10" x="768" y="585" style="fill: rgb(160, 160, 160); stroke: black; stroke-width: 1; opacity: 0.96;"></rect><rect class="rect" id="3_105" width="10" height="10" x="771" y="588" style="fill: rgb(224, 224, 224); stroke: black; stroke-width: 1; opacity: 0.96;"></rect><rect class="rect" id="3_106" width="10" height="10" x="774" y="591" style="fill: rgb(160, 160, 160); stroke: black; stroke-width: 1; opacity: 0.96;"></rect><rect class="rect" id="3_107" width="10" height="10" x="777" y="594" style="fill: rgb(224, 224, 224); stroke: black; stroke-width: 1; opacity: 0.96;"></rect><rect class="rect" id="3_108" width="10" height="10" x="780" y="597" style="fill: rgb(160, 160, 160); stroke: black; stroke-width: 1; opacity: 0.96;"></rect><rect class="rect" id="3_109" width="10" height="10" x="783" y="600" style="fill: rgb(224, 224, 224); stroke: black; stroke-width: 1; opacity: 0.96;"></rect><rect class="rect" id="3_110" width="10" height="10" x="786" y="603" style="fill: rgb(160, 160, 160); stroke: black; stroke-width: 1; opacity: 0.96;"></rect><rect class="rect" id="3_111" width="10" height="10" x="789" y="606" style="fill: rgb(224, 224, 224); stroke: black; stroke-width: 1; opacity: 0.96;"></rect><rect class="rect" id="3_112" width="10" height="10" x="792" y="609" style="fill: rgb(160, 160, 160); stroke: black; stroke-width: 1; opacity: 0.96;"></rect><rect class="rect" id="3_113" width="10" height="10" x="795" y="612" style="fill: rgb(224, 224, 224); stroke: black; stroke-width: 1; opacity: 0.96;"></rect><rect class="rect" id="3_114" width="10" height="10" x="798" y="615" style="fill: rgb(160, 160, 160); stroke: black; stroke-width: 1; opacity: 0.96;"></rect><rect class="rect" id="3_115" width="10" height="10" x="801" y="618" style="fill: rgb(224, 224, 224); stroke: black; stroke-width: 1; opacity: 0.96;"></rect><rect class="rect" id="3_116" width="10" height="10" x="804" y="621" style="fill: rgb(160, 160, 160); stroke: black; stroke-width: 1; opacity: 0.96;"></rect><rect class="rect" id="3_117" width="10" height="10" x="807" y="624" style="fill: rgb(224, 224, 224); stroke: black; stroke-width: 1; opacity: 0.96;"></rect><rect class="rect" id="3_118" width="10" height="10" x="810" y="627" style="fill: rgb(160, 160, 160); stroke: black; stroke-width: 1; opacity: 0.96;"></rect><rect class="rect" id="3_119" width="10" height="10" x="813" y="630" style="fill: rgb(224, 224, 224); stroke: black; stroke-width: 1; opacity: 0.96;"></rect><rect class="rect" id="3_120" width="10" height="10" x="816" y="633" style="fill: rgb(160, 160, 160); stroke: black; stroke-width: 1; opacity: 0.96;"></rect><rect class="rect" id="3_121" width="10" height="10" x="819" y="636" style="fill: rgb(224, 224, 224); stroke: black; stroke-width: 1; opacity: 0.96;"></rect><rect class="rect" id="3_122" width="10" height="10" x="822" y="639" style="fill: rgb(160, 160, 160); stroke: black; stroke-width: 1; opacity: 0.96;"></rect><rect class="rect" id="3_123" width="10" height="10" x="825" y="642" style="fill: rgb(224, 224, 224); stroke: black; stroke-width: 1; opacity: 0.96;"></rect><rect class="rect" id="3_124" width="10" height="10" x="828" y="645" style="fill: rgb(160, 160, 160); stroke: black; stroke-width: 1; opacity: 0.96;"></rect><rect class="rect" id="3_125" width="10" height="10" x="831" y="648" style="fill: rgb(224, 224, 224); stroke: black; stroke-width: 1; opacity: 0.96;"></rect><rect class="rect" id="3_126" width="10" height="10" x="834" y="651" style="fill: rgb(160, 160, 160); stroke: black; stroke-width: 1; opacity: 0.96;"></rect><rect class="rect" id="3_127" width="10" height="10" x="837" y="654" style="fill: rgb(224, 224, 224); stroke: black; stroke-width: 1; opacity: 0.96;"></rect><rect class="conv" id="conv_0" width="3" height="3" x="189.96342357540138" y="472.6375579699836" style="fill-opacity: 0; stroke: black; stroke-width: 1; stroke-opacity: 0.96;"></rect><rect class="conv" id="conv_1" width="3" height="3" x="367.052129789809" y="520.8848554080984" style="fill-opacity: 0; stroke: black; stroke-width: 1; stroke-opacity: 0.96;"></rect><rect class="conv" id="conv_2" width="3" height="3" x="534.2507485848628" y="556.7651542971041" style="fill-opacity: 0; stroke: black; stroke-width: 1; stroke-opacity: 0.96;"></rect><line class="link" id="conv_0" x1="192.96342357540138" y1="475.6375579699836" x2="359.44196051841743" y2="520.863060288783" style="stroke: black; stroke-width: 0.5; stroke-opacity: 0.96;"></line><line class="link" id="conv_0" x1="192.96342357540138" y1="472.6375579699836" x2="359.44196051841743" y2="520.863060288783" style="stroke: black; stroke-width: 0.5; stroke-opacity: 0.96;"></line><line class="link" id="conv_1" x1="370.052129789809" y1="523.8848554080984" x2="552.9239615198006" y2="570.7059360780156" style="stroke: black; stroke-width: 0.5; stroke-opacity: 0.96;"></line><line class="link" id="conv_1" x1="370.052129789809" y1="520.8848554080984" x2="552.9239615198006" y2="570.7059360780156" style="stroke: black; stroke-width: 0.5; stroke-opacity: 0.96;"></line><line class="link" id="conv_2" x1="537.2507485848628" y1="559.7651542971041" x2="838.0717850404108" y2="656.7453115700496" style="stroke: black; stroke-width: 0.5; stroke-opacity: 0.96;"></line><line class="link" id="conv_2" x1="537.2507485848628" y1="556.7651542971041" x2="838.0717850404108" y2="656.7453115700496" style="stroke: black; stroke-width: 0.5; stroke-opacity: 0.96;"></line><polygon class="poly" id="fc_0" points="748,423.24516600406093 758,423.24516600406093 848.5096679918781,513.754833995939 838.5096679918781,513.754833995939" style="fill: rgb(224, 224, 224); stroke: black; stroke-width: 1; opacity: 0.96;"></polygon><polygon class="poly" id="fc_1" points="850.5096679918781,464.96446609406723 860.5096679918781,464.96446609406723 867.5807358037436,472.0355339059327 857.5807358037436,472.0355339059327" style="fill: rgb(224, 224, 224); stroke: black; stroke-width: 1; opacity: 0.96;"></polygon><line class="line" id="fc_0" x1="847" y1="664" x2="838.5096679918781" y2="513.7548339959391" style="stroke: black; stroke-width: 0.5; stroke-opacity: 0.96;"></line><line class="line" id="fc_0" x1="466" y1="273" x2="748" y2="423.24516600406093" style="stroke: black; stroke-width: 0.5; stroke-opacity: 0.96;"></line><line class="line" id="fc_1" x1="848.5096679918781" y1="513.7548339959391" x2="857.5807358037436" y2="472.03553390593277" style="stroke: black; stroke-width: 0.5; stroke-opacity: 0.96;"></line><line class="line" id="fc_1" x1="758" y1="423.24516600406093" x2="850.5096679918781" y2="464.96446609406723" style="stroke: black; stroke-width: 0.5; stroke-opacity: 0.96;"></line><text class="text" dy=".35em" font-family="sans-serif" x="244.75" y="845.5" style="font-size: 16px;">Convolution</text><text class="text" dy=".35em" font-family="sans-serif" x="396.25" y="845.5" style="font-size: 16px;">Convolution</text><text class="text" dy=".35em" font-family="sans-serif" x="588.75" y="845.5" style="font-size: 16px;">Convolution</text><text class="text" dy=".35em" font-family="sans-serif" x="805.1274169979695" y="845.5" style="font-size: 16px;">Dense</text><text class="info" dy="-0.3em" font-family="sans-serif" x="178" y="439.5" style="font-size: 16px;">1@28x28</text><text class="info" dy="-0.3em" font-family="sans-serif" x="254" y="394" style="font-size: 16px;">32@26x26</text><text class="info" dy="-0.3em" font-family="sans-serif" x="343" y="347" style="font-size: 16px;">64@24x24</text><text class="info" dy="-0.3em" font-family="sans-serif" x="456" y="258" style="font-size: 16px;">128@10x10</text><text class="info" dy="-0.3em" font-family="sans-serif" x="748" y="408.24516600406093" style="font-size: 16px;">1x128</text><text class="info" dy="-0.3em" font-family="sans-serif" x="850.5096679918781" y="449.96446609406723" style="font-size: 16px;">1x10</text></g></svg>